<?xml version="1.0" standalone="no"?><!DOCTYPE svg PUBLIC "-//W3C//DTD SVG 1.1//EN" "http://www.w3.org/Graphics/SVG/1.1/DTD/svg11.dtd"><svg t="1656644283469" class="icon" viewBox="0 0 1024 1024" version="1.1" xmlns="http://www.w3.org/2000/svg" p-id="906" width="200" height="200" xmlns:xlink="http://www.w3.org/1999/xlink"><defs><style type="text/css"></style></defs><path d="M249.557333 219.776a51.2 51.2 0 0 0-72.405333 72.405333L396.928 512 177.152 731.733333a51.2 51.2 0 1 0 72.405333 72.405334l256-256a51.2 51.2 0 0 0 0-72.405334l-256-256z" p-id="907"></path><path d="M590.890667 219.776a51.2 51.2 0 0 0-72.405334 72.405333L738.261333 512l-219.818666 219.776a51.2 51.2 0 1 0 72.448 72.405333l256-256a51.2 51.2 0 0 0 0-72.405333l-256-256z" p-id="908"></path></svg>