<?xml version="1.0" standalone="no"?><!DOCTYPE svg PUBLIC "-//W3C//DTD SVG 1.1//EN" "http://www.w3.org/Graphics/SVG/1.1/DTD/svg11.dtd"><svg t="1656909818343" class="icon" viewBox="0 0 1024 1024" version="1.1" xmlns="http://www.w3.org/2000/svg" p-id="17307" xmlns:xlink="http://www.w3.org/1999/xlink" width="200" height="200"><defs><style type="text/css"></style></defs><path d="M29.220571 512c0 238.72 197.997714 437.138286 437.138286 437.138286 144 0 273.426286-72.850286 353.572572-183.003429 14.573714-18.834286 9.856-42.422857-7.716572-53.138286-17.993143-10.715429-38.144-5.138286-51.017143 11.995429a363.099429 363.099429 0 0 1-294.838857 151.296C264.045714 876.708571 102.070857 713.856 102.070857 512c0-202.294857 162.011429-363.849143 364.288-363.849143 173.568 0 317.988571 119.131429 354.852572 281.142857h-61.714286c-30.427429 0-38.582857 20.992-21.851429 44.141715l96 136.704c13.714286 19.712 34.285714 20.150857 48 0l96-136.283429c17.133714-23.570286 8.996571-44.562286-21.851428-44.562286h-60.434286c-39.003429-200.594286-218.148571-354.432-429.001143-354.432C227.218286 74.861714 29.220571 272.859429 29.220571 512zM354.925714 718.573714h222.866286c29.568 0 43.702857-14.573714 43.702857-46.72v-171.428571c0-28.288-10.715429-42.861714-33.426286-46.281143v-51.017143c0-83.565714-50.56-137.545143-121.709714-137.545143-71.131429 0-121.709714 53.997714-121.709714 137.563429v51.419428c-22.729143 3.437714-33.865143 18.011429-33.865143 45.860572v171.428571c0 32.146286 14.153143 46.72 44.141714 46.72z m34.285715-320.146285c0-53.997714 30.866286-89.563429 77.147428-89.563429 46.281143 0 77.147429 35.565714 77.147429 89.563429v55.277714h-154.294857z" p-id="17308"></path></svg>