<?xml version="1.0" standalone="no"?><!DOCTYPE svg PUBLIC "-//W3C//DTD SVG 1.1//EN" "http://www.w3.org/Graphics/SVG/1.1/DTD/svg11.dtd"><svg t="1656909763509" class="icon" viewBox="0 0 1024 1024" version="1.1" xmlns="http://www.w3.org/2000/svg" p-id="16542" xmlns:xlink="http://www.w3.org/1999/xlink" width="200" height="200"><defs><style type="text/css"></style></defs><path d="M29.220571 512c0 238.72 197.997714 437.138286 437.138286 437.138286 144 0 273.426286-72.850286 353.572572-183.003429 14.573714-18.834286 9.856-42.422857-7.716572-53.138286-17.993143-10.715429-38.144-5.138286-51.017143 11.995429a363.099429 363.099429 0 0 1-294.838857 151.296C264.045714 876.708571 102.070857 713.856 102.070857 512c0-202.294857 162.011429-363.849143 364.288-363.849143 173.568 0 317.988571 119.131429 354.852572 281.142857h-61.714286c-30.427429 0-38.582857 20.992-21.851429 44.141715l96 136.704c13.714286 19.712 34.285714 20.150857 48 0l96-136.283429c17.133714-23.570286 8.996571-44.562286-21.851428-44.562286h-60.434286c-39.003429-200.594286-218.148571-354.432-429.001143-354.432C227.218286 74.861714 29.220571 272.859429 29.220571 512z m325.284572 206.573714h223.268571c29.586286 0 43.721143-14.573714 43.721143-46.72v-171.428571c0-32.146286-14.134857-46.72-43.702857-46.72H387.931429v-52.278857c0-57.417143 30.848-92.562286 78.427428-92.562286 46.72 0 75.428571 29.129143 75.428572 74.989714v9.435429c0 13.714286 8.137143 21.851429 20.571428 21.851428 12.854857 0 22.710857-8.137143 22.710857-21.851428v-6.857143c0-70.710857-45.421714-120.868571-118.710857-120.868571-76.288 0-123.008 57.874286-123.008 136.301714v52.699428c-22.272 3.437714-32.548571 18.011429-32.548571 45.860572v171.428571c0 32.146286 14.134857 46.72 43.702857 46.72z" p-id="16543"></path></svg>