<?xml version="1.0" standalone="no"?><!DOCTYPE svg PUBLIC "-//W3C//DTD SVG 1.1//EN" "http://www.w3.org/Graphics/SVG/1.1/DTD/svg11.dtd"><svg t="1656644439225" class="icon" viewBox="0 0 1024 1024" version="1.1" xmlns="http://www.w3.org/2000/svg" p-id="2414" xmlns:xlink="http://www.w3.org/1999/xlink" width="200" height="200"><defs><style type="text/css"></style></defs><path d="M894.4 931.2H129.6c-20.8 0-36.8-16-36.8-36.8 0-20.8 16-36.8 36.8-36.8h764.8c20.8 0 36.8 16 36.8 36.8 1.6 20.8-16 36.8-36.8 36.8z m-1.6-382.4H459.2c-20.8 0-36.8-16-36.8-36.8 0-20.8 16-36.8 36.8-36.8h433.6c20.8 0 36.8 16 36.8 36.8 1.6 20.8-16 36.8-36.8 36.8z m0-382.4H128c-20.8 0-36.8-16-36.8-36.8 0-20.8 16-36.8 36.8-36.8h764.8c20.8 0 36.8 16 36.8 36.8s-16 36.8-36.8 36.8z m-624 532.8L102.4 532.8c-11.2-11.2-11.2-30.4 0-43.2l166.4-166.4c11.2-11.2 30.4-11.2 43.2 0 6.4 6.4 8 12.8 9.6 20.8v332.8c0 16-12.8 30.4-30.4 30.4-9.6 1.6-17.6-1.6-22.4-8z" p-id="2415"></path></svg>