<?xml version="1.0" standalone="no"?><!DOCTYPE svg PUBLIC "-//W3C//DTD SVG 1.1//EN" "http://www.w3.org/Graphics/SVG/1.1/DTD/svg11.dtd"><svg t="1656673813470" class="icon" viewBox="0 0 1024 1024" version="1.1" xmlns="http://www.w3.org/2000/svg" p-id="1564" xmlns:xlink="http://www.w3.org/1999/xlink" width="200" height="200"><defs><style type="text/css"></style></defs><path d="M429.473 929.489c-20.146 0-36.409-16.263-36.409-36.41V683.487c0-8.374 2.913-16.627 8.253-23.06l437.878-533.632c10.315-12.622 27.792-16.748 42.72-10.195s23.665 22.21 21.48 38.351l-99.638 709.245c-1.578 11.651-8.86 21.846-19.176 27.186-10.437 5.461-22.816 5.461-33.375 0.121L523.894 775.843c-17.962-9.102-25.001-31.069-15.899-48.91 9.102-17.96 31.069-25 48.91-15.898l181.922 92.6 74.517-530.356-347.462 423.314V893.08c0 20.146-16.384 36.409-36.409 36.409z" fill="#333333" p-id="1565"></path><path d="M319.761 669.772c-5.583 0-11.287-1.335-16.627-4.005L117.45 569.89c-12.015-6.19-19.66-18.568-19.66-32.161-0.122-13.593 7.402-25.972 19.417-32.404L850.36 117.692c17.719-9.345 39.807-2.549 49.152 15.17 9.345 17.72 2.549 39.807-15.17 49.152L212.719 537.122l123.79 63.958c17.84 9.224 24.88 31.19 15.656 49.031-6.432 12.5-19.175 19.66-32.404 19.66z" fill="#333333" p-id="1566"></path></svg>