<?xml version="1.0" standalone="no"?><!DOCTYPE svg PUBLIC "-//W3C//DTD SVG 1.1//EN" "http://www.w3.org/Graphics/SVG/1.1/DTD/svg11.dtd"><svg t="1656648554975" class="icon" viewBox="0 0 1024 1024" version="1.1" xmlns="http://www.w3.org/2000/svg" p-id="27569" xmlns:xlink="http://www.w3.org/1999/xlink" width="200" height="200"><defs><style type="text/css"></style></defs><path d="M512 640.092244a127.968968 127.968968 0 1 1 127.968968-127.968967 127.968968 127.968968 0 0 1-127.968968 127.968967z m0-170.62529a42.656323 42.656323 0 1 0 42.656323 42.656323 42.656323 42.656323 0 0 0-42.656323-42.656323zM639.968968 213.529019a42.656323 42.656323 0 0 1-30.285989-12.370333L512 103.049144l-97.682979 98.109542a42.656323 42.656323 0 0 1-60.571978-60.571978l127.968968-127.968968a42.656323 42.656323 0 0 1 60.571978 0l127.968968 127.968968a42.656323 42.656323 0 0 1 0 60.571978A42.656323 42.656323 0 0 1 639.968968 213.529019zM512 1023.999147a42.656323 42.656323 0 0 1-30.285989-12.370334l-127.968968-127.968967a42.656323 42.656323 0 0 1 60.571978-60.571978l97.682979 98.109542 97.682979-98.109542a42.656323 42.656323 0 0 1 60.571978 60.571978l-127.968968 127.968967A42.656323 42.656323 0 0 1 512 1023.999147z" p-id="27570"></path></svg>